<?xml version="1.0" encoding="UTF-8" standalone="no"?>
<!-- Created with Inkscape (http://www.inkscape.org/) -->

<svg
   width="125mm"
   height="150mm"
   viewBox="0 0 125.00001 150"
   version="1.1"
   id="svg1"
   xml:space="preserve"
   inkscape:version="1.3.2 (091e20e, 2023-11-25, custom)"
   sodipodi:docname="AIME-logo-final.svg"
   xmlns:inkscape="http://www.inkscape.org/namespaces/inkscape"
   xmlns:sodipodi="http://sodipodi.sourceforge.net/DTD/sodipodi-0.dtd"
   xmlns="http://www.w3.org/2000/svg"
   xmlns:svg="http://www.w3.org/2000/svg"><sodipodi:namedview
     id="namedview1"
     pagecolor="#ffffff"
     bordercolor="#000000"
     borderopacity="0.25"
     inkscape:showpageshadow="2"
     inkscape:pageopacity="0.0"
     inkscape:pagecheckerboard="0"
     inkscape:deskcolor="#d1d1d1"
     inkscape:document-units="mm"
     inkscape:zoom="0.5"
     inkscape:cx="228"
     inkscape:cy="391"
     inkscape:window-width="1920"
     inkscape:window-height="1009"
     inkscape:window-x="-8"
     inkscape:window-y="-8"
     inkscape:window-maximized="1"
     inkscape:current-layer="layer1" /><defs
     id="defs1"><inkscape:path-effect
       effect="bend_path"
       id="path-effect692"
       is_visible="true"
       lpeversion="1"
       bendpath="m 148.0037,76.195078 c 0,0 4.19069,10.476594 4.84342,16.015576 0.46941,3.983328 -0.47215,8.007876 -0.71037,12.011686 -0.28677,4.81974 9.99335,9.24396 11.62421,17.24258 0.76521,3.75294 -5.09374,4.62733 -5.29547,7.74947 -0.1095,1.6947 2.39318,2.84519 2.30917,4.54134 -0.0678,1.36871 -2.37349,2.91216 -2.43833,3.59561 -0.0436,0.45931 1.35783,1.68301 0.77497,3.81015 -0.66985,2.44455 -2.44003,1.85213 -2.97063,2.454 -0.90276,1.02402 -0.19499,4.46546 -0.3229,5.94126 -0.18554,3.65135 -2.43228,6.02998 -6.07039,7.49117 -2.84674,1.12955 -5.13772,1.23001 -9.10564,1.22699 -5.13655,-0.004 -10.26389,0.49414 -12.33458,8.589"
       prop_scale="1"
       scale_y_rel="false"
       vertical="false"
       hide_knot="false" /><inkscape:path-effect
       effect="bend_path"
       id="path-effect691"
       is_visible="true"
       lpeversion="1"
       bendpath="m 148.0037,76.195078 c 0,0 4.19069,10.476594 4.84342,16.015576 0.46941,3.983328 -0.47215,8.007876 -0.71037,12.011686 -0.28677,4.81974 9.99335,9.24396 11.62421,17.24258 0.76521,3.75294 -5.09374,4.62733 -5.29547,7.74947 -0.1095,1.6947 2.39318,2.84519 2.30917,4.54134 -0.0678,1.36871 -2.37349,2.91216 -2.43833,3.59561 -0.0436,0.45931 1.35783,1.68301 0.77497,3.81015 -0.66985,2.44455 -2.44003,1.85213 -2.97063,2.454 -0.90276,1.02402 -0.19499,4.46546 -0.3229,5.94126 -0.18554,3.65135 -2.43228,6.02998 -6.07039,7.49117 -2.84674,1.12955 -5.13772,1.23001 -9.10564,1.22699 -5.13655,-0.004 -10.26389,0.49414 -12.33458,8.589"
       prop_scale="1"
       scale_y_rel="false"
       vertical="false"
       hide_knot="false" /><inkscape:path-effect
       effect="bend_path"
       id="path-effect689"
       is_visible="true"
       lpeversion="1"
       bendpath="m 148.0037,76.195078 c 0,0 4.19069,10.476594 4.84342,16.015576 0.46941,3.983328 -0.47215,8.007876 -0.71037,12.011686 -0.28677,4.81974 9.99335,9.24396 11.62421,17.24258 0.76521,3.75294 -5.09374,4.62733 -5.29547,7.74947 -0.1095,1.6947 2.39318,2.84519 2.30917,4.54134 -0.0678,1.36871 -2.37349,2.91216 -2.43833,3.59561 -0.0436,0.45931 1.35783,1.68301 0.77497,3.81015 -0.66985,2.44455 -2.44003,1.85213 -2.97063,2.454 -0.90276,1.02402 -0.19499,4.46546 -0.3229,5.94126 -0.18554,3.65135 -2.43228,6.02998 -6.07039,7.49117 -2.84674,1.12955 -5.13772,1.23001 -9.10564,1.22699 -5.13655,-0.004 -10.26389,0.49414 -12.33458,8.589"
       prop_scale="1"
       scale_y_rel="false"
       vertical="false"
       hide_knot="false" /><inkscape:path-effect
       effect="bend_path"
       id="path-effect687"
       is_visible="true"
       lpeversion="1"
       bendpath="m 148.0037,76.195078 c 0,0 4.19069,10.476594 4.84342,16.015576 0.46941,3.983328 -0.47215,8.007876 -0.71037,12.011686 -0.28677,4.81974 9.99335,9.24396 11.62421,17.24258 0.76521,3.75294 -5.09374,4.62733 -5.29547,7.74947 -0.1095,1.6947 2.39318,2.84519 2.30917,4.54134 -0.0678,1.36871 -2.37349,2.91216 -2.43833,3.59561 -0.0436,0.45931 1.35783,1.68301 0.77497,3.81015 -0.66985,2.44455 -2.44003,1.85213 -2.97063,2.454 -0.90276,1.02402 -0.19499,4.46546 -0.3229,5.94126 -0.18554,3.65135 -2.43228,6.02998 -6.07039,7.49117 -2.84674,1.12955 -5.13772,1.23001 -9.10564,1.22699 -5.13655,-0.004 -10.26389,0.49414 -12.33458,8.589"
       prop_scale="1"
       scale_y_rel="false"
       vertical="false"
       hide_knot="false" /><inkscape:path-effect
       effect="bend_path"
       id="path-effect685"
       is_visible="true"
       lpeversion="1"
       bendpath="m 148.0037,76.195078 c 0,0 4.19069,10.476594 4.84342,16.015576 0.46941,3.983328 -0.47215,8.007876 -0.71037,12.011686 -0.28677,4.81974 9.99335,9.24396 11.62421,17.24258 0.76521,3.75294 -5.09374,4.62733 -5.29547,7.74947 -0.1095,1.6947 2.39318,2.84519 2.30917,4.54134 -0.0678,1.36871 -2.37349,2.91216 -2.43833,3.59561 -0.0436,0.45931 1.35783,1.68301 0.77497,3.81015 -0.66985,2.44455 -2.44003,1.85213 -2.97063,2.454 -0.90276,1.02402 -0.19499,4.46546 -0.3229,5.94126 -0.18554,3.65135 -2.43228,6.02998 -6.07039,7.49117 -2.84674,1.12955 -5.13772,1.23001 -9.10564,1.22699 -5.13655,-0.004 -10.26389,0.49414 -12.33458,8.589"
       prop_scale="1"
       scale_y_rel="false"
       vertical="false"
       hide_knot="false" /><inkscape:path-effect
       effect="bend_path"
       id="path-effect683"
       is_visible="true"
       lpeversion="1"
       bendpath="m 148.0037,76.195078 c 0,0 4.19069,10.476594 4.84342,16.015576 0.46941,3.983328 -0.47215,8.007876 -0.71037,12.011686 -0.28677,4.81974 9.99335,9.24396 11.62421,17.24258 0.76521,3.75294 -5.09374,4.62733 -5.29547,7.74947 -0.1095,1.6947 2.39318,2.84519 2.30917,4.54134 -0.0678,1.36871 -2.37349,2.91216 -2.43833,3.59561 -0.0436,0.45931 1.35783,1.68301 0.77497,3.81015 -0.66985,2.44455 -2.44003,1.85213 -2.97063,2.454 -0.90276,1.02402 -0.19499,4.46546 -0.3229,5.94126 -0.18554,3.65135 -2.43228,6.02998 -6.07039,7.49117 -2.84674,1.12955 -5.13772,1.23001 -9.10564,1.22699 -5.13655,-0.004 -10.26389,0.49414 -12.33458,8.589"
       prop_scale="1"
       scale_y_rel="false"
       vertical="false"
       hide_knot="false" /><inkscape:path-effect
       effect="bend_path"
       id="path-effect681"
       is_visible="true"
       lpeversion="1"
       bendpath="m 128.30716,121.52949 h 35.52268"
       prop_scale="1"
       scale_y_rel="false"
       vertical="false"
       hide_knot="false" /><inkscape:path-effect
       effect="bend_path"
       id="path-effect680"
       is_visible="true"
       lpeversion="1"
       bendpath="m 148.0037,76.195078 c 0,0 4.19069,10.476594 4.84342,16.015576 0.46941,3.983328 -0.47215,8.007876 -0.71037,12.011686 -0.28677,4.81974 9.99335,9.24396 11.62421,17.24258 0.76521,3.75294 -5.09374,4.62733 -5.29547,7.74947 -0.1095,1.6947 2.39318,2.84519 2.30917,4.54134 -0.0678,1.36871 -2.37349,2.91216 -2.43833,3.59561 -0.0436,0.45931 1.35783,1.68301 0.77497,3.81015 -0.66985,2.44455 -2.44003,1.85213 -2.97063,2.454 -0.90276,1.02402 -0.19499,4.46546 -0.3229,5.94126 -0.18554,3.65135 -2.43228,6.02998 -6.07039,7.49117 -2.84674,1.12955 -5.13772,1.23001 -9.10564,1.22699 -5.13655,-0.004 -10.26389,0.49414 -12.33458,8.589"
       prop_scale="1"
       scale_y_rel="false"
       vertical="false"
       hide_knot="false" /><inkscape:path-effect
       effect="curvestitching"
       id="path-effect9"
       is_visible="true"
       lpeversion="1"
       count="5"
       startpoint_edge_variation="0;1"
       startpoint_spacing_variation="0;1"
       endpoint_edge_variation="0;1"
       endpoint_spacing_variation="0;1"
       strokepath="M 57.722343,60.566975 H 93.245024"
       prop_scale="1"
       scale_y_rel="false" /><inkscape:path-effect
       effect="bend_path"
       id="path-effect680-5"
       is_visible="true"
       lpeversion="1"
       bendpath="m 148.0037,76.195078 c 0,0 4.19069,10.476594 4.84342,16.015576 0.46941,3.983328 -0.47215,8.007876 -0.71037,12.011686 -0.28677,4.81974 9.99335,9.24396 11.62421,17.24258 0.76521,3.75294 -5.09374,4.62733 -5.29547,7.74947 -0.1095,1.6947 2.39318,2.84519 2.30917,4.54134 -0.0678,1.36871 -2.37349,2.91216 -2.43833,3.59561 -0.0436,0.45931 1.35783,1.68301 0.77497,3.81015 -0.66985,2.44455 -2.44003,1.85213 -2.97063,2.454 -0.90276,1.02402 -0.19499,4.46546 -0.3229,5.94126 -0.18554,3.65135 -2.43228,6.02998 -6.07039,7.49117 -2.84674,1.12955 -5.13772,1.23001 -9.10564,1.22699 -5.13655,-0.004 -10.26389,0.49414 -12.33458,8.589"
       prop_scale="1"
       scale_y_rel="false"
       vertical="false"
       hide_knot="false" /></defs><g
     inkscape:label="Layer 1"
     inkscape:groupmode="layer"
     id="layer1"
     transform="translate(-57.722343,-60.566975)"><rect
       style="fill:#103665;fill-opacity:1;stroke:none;stroke-width:1;stroke-linecap:round;stroke-linejoin:round;stroke-dasharray:none;stroke-opacity:1"
       id="rect961"
       width="127.4557"
       height="157.23506"
       x="56.494499"
       y="56.949455" /><text
       xml:space="preserve"
       style="font-style:normal;font-variant:normal;font-weight:normal;font-stretch:normal;font-size:27.2079px;font-family:'Morish Serif';-inkscape-font-specification:'Morish Serif';letter-spacing:-0.402342px;fill:#ffffff;stroke-width:1;stroke-linecap:round;stroke-linejoin:round"
       x="62.155365"
       y="198.56497"
       id="text1"><tspan
         sodipodi:role="line"
         id="tspan1"
         style="font-style:normal;font-variant:normal;font-weight:normal;font-stretch:normal;font-size:27.2079px;font-family:'Morish Serif';-inkscape-font-specification:'Morish Serif';letter-spacing:-0.402342px;stroke-width:1"
         x="62.155365"
         y="198.56497">AIME 2024</tspan></text><g
       id="g962"><g
         id="g27"><g
           id="g25"><path
             style="fill:#000000;stroke-width:1;stroke-linecap:round;stroke:#f9f9f9;stroke-dasharray:none;stroke-linejoin:round"
             d="M 82.004024,75.936763 V 166.87325"
             id="path17" /><path
             style="fill:#000000;stroke:#f9f9f9;stroke-width:1;stroke-linecap:round;stroke-linejoin:round;stroke-dasharray:none"
             d="M 91.198292,75.936763 V 166.87325"
             id="path18" /><path
             style="fill:#000000;stroke:#f9f9f9;stroke-width:1;stroke-linecap:round;stroke-linejoin:round;stroke-dasharray:none"
             d="M 100.39256,75.936763 V 166.87325"
             id="path19" /><path
             style="fill:#000000;stroke:#f9f9f9;stroke-width:1;stroke-linecap:round;stroke-linejoin:round;stroke-dasharray:none"
             d="M 109.58683,75.936763 V 166.87325"
             id="path20" /><path
             style="fill:#000000;stroke:#f9f9f9;stroke-width:1;stroke-linecap:round;stroke-linejoin:round;stroke-dasharray:none"
             d="M 118.7811,75.936763 V 166.87325"
             id="path21" /><path
             style="fill:#000000;stroke:#f9f9f9;stroke-width:1;stroke-linecap:round;stroke-linejoin:round;stroke-dasharray:none"
             d="M 127.97537,75.936763 V 166.87325"
             id="path22" /><path
             style="fill:#000000;stroke:#f9f9f9;stroke-width:1;stroke-linecap:round;stroke-linejoin:round;stroke-dasharray:none"
             d="M 137.16963,75.936763 V 166.87325"
             id="path23" /><path
             style="fill:#000000;stroke:#f9f9f9;stroke-width:1;stroke-linecap:round;stroke-linejoin:round;stroke-dasharray:none"
             d="M 146.3639,75.936763 V 166.87325"
             id="path24" /><path
             style="fill:#000000;stroke:#f9f9f9;stroke-width:1;stroke-linecap:round;stroke-linejoin:round;stroke-dasharray:none"
             d="M 155.55817,75.936763 V 166.87325"
             id="path25" /></g><g
           id="g26"><path
             style="fill:#000000;stroke:#f9f9f9;stroke-width:0.999993;stroke-linecap:round;stroke-linejoin:round;stroke-dasharray:none"
             d="M 163.55694,83.303676 H 74.00526"
             id="path17-7" /><path
             style="fill:#000000;stroke:#f9f9f9;stroke-width:0.999993;stroke-linecap:round;stroke-linejoin:round;stroke-dasharray:none"
             d="M 163.55694,92.740046 H 74.00526"
             id="path18-0" /><path
             style="fill:#000000;stroke:#f9f9f9;stroke-width:0.999993;stroke-linecap:round;stroke-linejoin:round;stroke-dasharray:none"
             d="M 163.55694,102.17643 H 74.00526"
             id="path19-7" /><path
             style="fill:#000000;stroke:#f9f9f9;stroke-width:0.999993;stroke-linecap:round;stroke-linejoin:round;stroke-dasharray:none"
             d="M 163.55694,111.6128 H 74.00526"
             id="path20-9" /><path
             style="fill:#000000;stroke:#f9f9f9;stroke-width:0.999993;stroke-linecap:round;stroke-linejoin:round;stroke-dasharray:none"
             d="M 163.55694,121.04916 H 74.00526"
             id="path21-8" /><path
             style="fill:#000000;stroke:#f9f9f9;stroke-width:0.999993;stroke-linecap:round;stroke-linejoin:round;stroke-dasharray:none"
             d="M 163.55694,130.48554 H 74.00526"
             id="path22-9" /><path
             style="fill:#000000;stroke:#f9f9f9;stroke-width:0.999993;stroke-linecap:round;stroke-linejoin:round;stroke-dasharray:none"
             d="M 163.55694,139.9219 H 74.00526"
             id="path23-5" /><path
             style="fill:#000000;stroke:#f9f9f9;stroke-width:0.999993;stroke-linecap:round;stroke-linejoin:round;stroke-dasharray:none"
             d="M 163.55694,149.35828 H 74.00526"
             id="path24-1" /><path
             style="fill:#000000;stroke:#f9f9f9;stroke-width:0.999993;stroke-linecap:round;stroke-linejoin:round;stroke-dasharray:none"
             d="M 163.55694,158.79464 H 74.00526"
             id="path25-8" /></g></g><rect
         style="fill:#ffffff;stroke:none;stroke-width:1;stroke-linecap:round;stroke-linejoin:round;stroke-dasharray:none;fill-opacity:1;stroke-opacity:1"
         id="rect27"
         width="36.777069"
         height="37.745472"
         x="100.39256"
         y="102.17643" /><path
         style="fill:#ffffff;fill-opacity:1;stroke:#113766;stroke-width:1;stroke-linecap:round;stroke-linejoin:round;stroke-dasharray:none;stroke-opacity:1"
         d="M 109.58683,102.17643 V 139.9219"
         id="path27" /><path
         style="fill:#ffffff;fill-opacity:1;stroke:#113766;stroke-width:1;stroke-linecap:round;stroke-linejoin:round;stroke-dasharray:none;stroke-opacity:1"
         d="M 118.7811,102.17643 V 139.9219"
         id="path28" /><path
         style="fill:#ffffff;fill-opacity:1;stroke:#113766;stroke-width:1;stroke-linecap:round;stroke-linejoin:round;stroke-dasharray:none;stroke-opacity:1"
         d="M 127.97537,102.17643 V 139.9219"
         id="path29" /><path
         style="fill:#ffffff;fill-opacity:1;stroke:#113766;stroke-width:1;stroke-linecap:round;stroke-linejoin:round;stroke-dasharray:none;stroke-opacity:1"
         d="m 100.39256,111.6128 h 36.77707"
         id="path30" /><path
         style="fill:#ffffff;fill-opacity:1;stroke:#113766;stroke-width:1;stroke-linecap:round;stroke-linejoin:round;stroke-dasharray:none;stroke-opacity:1"
         d="m 100.39256,121.04917 h 36.77707"
         id="path31" /><path
         style="fill:#ffffff;fill-opacity:1;stroke:#113766;stroke-width:1;stroke-linecap:round;stroke-linejoin:round;stroke-dasharray:none;stroke-opacity:1"
         d="m 100.39256,130.48554 h 36.77707"
         id="path32" /><g
         id="g914"
         transform="matrix(0.99860318,0,0,1.0048076,0.16419216,-0.478475)"
         style="stroke-width:0.998303"><path
           d="m 147.958,76.0189 c 0,0 4.19,10.4766 4.843,16.0156 v 0 c 0.47,3.9833 -0.472,8.0075 -0.71,12.0115 v 0 c -0.287,4.82 9.993,9.244 11.624,17.243 v 0 c 0.765,3.753 -5.094,4.627 -5.295,7.749 v 0 c -0.11,1.695 2.393,2.845 2.309,4.542 v 0 c -0.068,1.368 -2.374,2.912 -2.439,3.595 v 0 c -0.043,0.459 1.358,1.683 0.775,3.81 v 0 c -0.67,2.445 -2.44,1.852 -2.97,2.454 v 0 c -0.903,1.024 -0.195,4.466 -0.323,5.942 v 0 c -0.186,3.651 -2.432,6.03 -6.071,7.491 v 0 c -2.846,1.129 -5.137,1.23 -9.105,1.227 h -0.001 c -5.136,-0.004 -10.263,0.494 -12.334,8.589"
           style="fill:none;fill-opacity:0;stroke:#ffffff;stroke-width:0.998303px;stroke-linecap:round;stroke-opacity:1"
           id="path883" /><path
           d="m 147.612,76.0189 c 0,0 4.191,10.4766 4.844,16.0156 v 0 c 0.469,3.9834 -0.473,8.0075 -0.711,12.0115 v 0 c -0.287,4.82 9.994,9.244 11.624,17.243 v 0 c 0.766,3.753 -5.093,4.627 -5.295,7.749 v 0 c -0.11,1.695 2.393,2.845 2.309,4.542 v 0 c -0.068,1.368 -2.373,2.912 -2.438,3.595 v 0 c -0.044,0.46 1.358,1.683 0.775,3.81 v 0 c -0.67,2.445 -2.44,1.852 -2.971,2.454 v 0 c -0.903,1.024 -0.195,4.466 -0.323,5.942 v 0 c -0.185,3.651 -2.432,6.03 -6.07,7.491 v 0 c -2.847,1.129 -5.138,1.23 -9.106,1.227 h -0.001 c -5.136,-0.004 -10.263,0.494 -12.333,8.589"
           style="fill:none;fill-opacity:0;stroke:#f7f8fa;stroke-width:0.998303px;stroke-linecap:round;stroke-opacity:1"
           id="path884" /><path
           d="m 147.267,76.0189 c 0,0 4.19,10.4766 4.843,16.0156 v 1e-4 c 0.469,3.9833 -0.472,8.0074 -0.71,12.0114 v 0 c -0.287,4.82 9.993,9.244 11.624,17.243 v 0 c 0.765,3.753 -5.094,4.627 -5.296,7.749 v 0 c -0.109,1.695 2.394,2.845 2.31,4.542 v 0 c -0.068,1.368 -2.374,2.912 -2.439,3.595 v 0 c -0.043,0.46 1.358,1.683 0.775,3.81 v 0 c -0.67,2.445 -2.44,1.852 -2.97,2.454 h -0.001 c -0.902,1.024 -0.194,4.466 -0.322,5.942 v 0 c -0.186,3.651 -2.433,6.03 -6.071,7.491 v 0 c -2.847,1.129 -5.138,1.23 -9.105,1.227 h -0.001 c -5.137,-0.004 -10.263,0.494 -12.334,8.589"
           style="fill:none;fill-opacity:0;stroke:#eff2f5;stroke-width:0.998303px;stroke-linecap:round;stroke-opacity:1"
           id="path885" /><path
           d="m 146.921,76.0189 c 0,0 4.191,10.4766 4.843,16.0156 v 1e-4 c 0.47,3.9833 -0.472,8.0074 -0.71,12.0114 v 0 c -0.287,4.82 9.993,9.244 11.624,17.243 v 0 c 0.765,3.753 -5.094,4.627 -5.295,7.749 v 0 c -0.11,1.695 2.393,2.845 2.309,4.542 v 0 c -0.068,1.368 -2.374,2.912 -2.438,3.595 v 0 c -0.044,0.46 1.357,1.683 0.775,3.81 v 0 c -0.67,2.445 -2.44,1.852 -2.971,2.454 v 0 c -0.903,1.025 -0.195,4.466 -0.323,5.942 v 0 c -0.186,3.651 -2.432,6.03 -6.07,7.491 v 0 c -2.847,1.129 -5.138,1.23 -9.106,1.227 h -0.001 c -5.136,-0.004 -10.263,0.494 -12.334,8.589"
           style="fill:none;fill-opacity:0;stroke:#e7ebf0;stroke-width:0.998303px;stroke-linecap:round;stroke-opacity:1"
           id="path886" /><path
           d="m 146.575,76.0189 c 0,0 4.191,10.4766 4.844,16.0156 v 1e-4 c 0.469,3.9833 -0.472,8.0074 -0.711,12.0114 v 0 c -0.286,4.82 9.994,9.244 11.625,17.243 v 0 c 0.765,3.753 -5.094,4.627 -5.296,7.749 v 0 c -0.109,1.695 2.393,2.845 2.309,4.542 v 0 c -0.068,1.368 -2.373,2.912 -2.438,3.595 v 0 c -0.043,0.46 1.358,1.683 0.775,3.81 v 0 c -0.67,2.445 -2.44,1.852 -2.971,2.454 v 0 c -0.902,1.025 -0.195,4.466 -0.323,5.942 v 0 c -0.185,3.651 -2.432,6.03 -6.07,7.491 v 0 c -2.847,1.129 -5.138,1.23 -9.106,1.227 h -0.001 c -5.136,-0.004 -10.263,0.494 -12.333,8.589"
           style="fill:none;fill-opacity:0;stroke:#e0e5eb;stroke-width:0.998303px;stroke-linecap:round;stroke-opacity:1"
           id="path887" /><path
           d="m 146.23,76.0189 c 0,0 4.19,10.4766 4.843,16.0156 v 1e-4 c 0.47,3.9833 -0.472,8.0074 -0.71,12.0114 v 0 c -0.287,4.82 9.993,9.244 11.624,17.243 v 0 c 0.765,3.753 -5.094,4.627 -5.295,7.749 v 0 c -0.11,1.695 2.393,2.845 2.309,4.542 v 0 c -0.068,1.368 -2.374,2.912 -2.439,3.595 v 0 c -0.043,0.46 1.358,1.683 0.775,3.81 v 0 c -0.67,2.445 -2.44,1.852 -2.97,2.454 v 0 c -0.903,1.025 -0.195,4.466 -0.323,5.942 v 0 c -0.186,3.651 -2.433,6.03 -6.071,7.491 v 0 c -2.846,1.129 -5.137,1.23 -9.105,1.227 h -0.001 c -5.136,-0.004 -10.263,0.494 -12.334,8.589"
           style="fill:none;fill-opacity:0;stroke:#d8dee6;stroke-width:0.998303px;stroke-linecap:round;stroke-opacity:1"
           id="path888" /><path
           d="m 145.884,76.0189 c 0,0 4.191,10.4766 4.844,16.0156 v 2e-4 c 0.469,3.9832 -0.473,8.0073 -0.711,12.0113 v 0 c -0.286,4.82 9.994,9.244 11.624,17.243 v 0 c 0.765,3.753 -5.093,4.627 -5.295,7.749 v 0 c -0.109,1.695 2.393,2.845 2.309,4.542 v 0 c -0.068,1.368 -2.373,2.912 -2.438,3.595 v 0 c -0.044,0.46 1.358,1.683 0.775,3.81 v 10e-4 c -0.67,2.444 -2.44,1.851 -2.971,2.453 v 0 c -0.903,1.025 -0.195,4.466 -0.323,5.942 v 0 c -0.185,3.651 -2.432,6.03 -6.07,7.491 v 0 c -2.847,1.129 -5.138,1.23 -9.106,1.227 h -0.001 c -5.136,-0.004 -10.263,0.494 -12.333,8.589"
           style="fill:none;fill-opacity:0;stroke:#d0d8e1;stroke-width:0.998303px;stroke-linecap:round;stroke-opacity:1"
           id="path889" /><path
           d="m 145.539,76.0189 c 0,0 4.19,10.4766 4.843,16.0156 v 2e-4 c 0.469,3.9833 -0.472,8.0073 -0.71,12.0113 v 0 c -0.287,4.82 9.993,9.244 11.624,17.243 v 0 c 0.765,3.753 -5.094,4.627 -5.296,7.749 v 0 c -0.109,1.695 2.393,2.845 2.309,4.542 v 0 c -0.067,1.368 -2.373,2.912 -2.438,3.595 v 0 c -0.043,0.46 1.358,1.683 0.775,3.81 v 10e-4 c -0.67,2.444 -2.44,1.851 -2.971,2.453 v 0.001 c -0.902,1.024 -0.195,4.465 -0.322,5.941 v 0 c -0.186,3.651 -2.433,6.03 -6.071,7.491 v 0 c -2.847,1.129 -5.138,1.23 -9.105,1.227 h -0.001 c -5.137,-0.004 -10.263,0.494 -12.334,8.589"
           style="fill:none;fill-opacity:0;stroke:#c9d1dc;stroke-width:0.998303px;stroke-linecap:round;stroke-opacity:1"
           id="path890" /><path
           d="m 145.193,76.0189 c 0,0 4.191,10.4766 4.843,16.0156 v 2e-4 c 0.47,3.9833 -0.472,8.0073 -0.71,12.0113 v 0 c -0.286,4.82 9.993,9.244 11.624,17.243 v 0 c 0.765,3.753 -5.094,4.627 -5.295,7.749 v 0 c -0.11,1.695 2.393,2.845 2.309,4.542 v 0 c -0.068,1.368 -2.374,2.912 -2.438,3.595 v 0 c -0.044,0.46 1.357,1.683 0.775,3.81 l -10e-4,10e-4 c -0.669,2.444 -2.44,1.851 -2.97,2.453 v 0.001 c -0.903,1.024 -0.195,4.465 -0.323,5.941 v 0 c -0.186,3.651 -2.432,6.03 -6.07,7.491 h -0.001 c -2.846,1.129 -5.137,1.23 -9.105,1.227 h -10e-4 c -5.136,-0.004 -10.263,0.494 -12.334,8.589"
           style="fill:none;fill-opacity:0;stroke:#c1cbd7;stroke-width:0.998303px;stroke-linecap:round;stroke-opacity:1"
           id="path891" /><path
           d="m 144.847,76.0189 c 0,0 4.191,10.4766 4.844,16.0156 v 2e-4 c 0.469,3.9833 -0.472,8.0073 -0.711,12.0113 v 0 c -0.286,4.82 9.994,9.244 11.625,17.243 v 0 c 0.765,3.753 -5.094,4.627 -5.296,7.749 v 0 c -0.109,1.695 2.393,2.845 2.309,4.542 v 0 c -0.068,1.368 -2.373,2.912 -2.438,3.595 v 0 c -0.043,0.46 1.358,1.684 0.775,3.81 v 10e-4 c -0.67,2.444 -2.44,1.851 -2.971,2.453 v 0.001 c -0.902,1.024 -0.195,4.465 -0.323,5.941 v 0 c -0.185,3.651 -2.432,6.03 -6.07,7.491 v 0 c -2.847,1.129 -5.138,1.23 -9.106,1.227 h -0.001 c -5.136,-0.004 -10.263,0.494 -12.333,8.589"
           style="fill:none;fill-opacity:0;stroke:#b9c4d2;stroke-width:0.998303px;stroke-linecap:round;stroke-opacity:1"
           id="path892" /><path
           d="m 144.502,76.0189 c 0,0 4.19,10.4766 4.843,16.0156 v 2e-4 c 0.47,3.9833 -0.472,8.0073 -0.71,12.0113 v 0 c -0.287,4.82 9.993,9.244 11.624,17.243 v 0 c 0.765,3.753 -5.094,4.627 -5.296,7.749 v 0 c -0.109,1.695 2.394,2.845 2.31,4.542 v 0 c -0.068,1.368 -2.374,2.912 -2.439,3.595 v 0 c -0.043,0.46 1.358,1.684 0.775,3.81 v 10e-4 c -0.67,2.444 -2.44,1.851 -2.97,2.453 l -0.001,0.001 c -0.902,1.024 -0.194,4.465 -0.322,5.941 v 0 c -0.186,3.651 -2.433,6.03 -6.071,7.491 v 0 c -2.846,1.129 -5.137,1.23 -9.105,1.227 h -10e-4 c -5.136,-0.004 -10.263,0.494 -12.334,8.589"
           style="fill:none;fill-opacity:0;stroke:#b1becd;stroke-width:0.998303px;stroke-linecap:round;stroke-opacity:1"
           id="path893" /><path
           d="m 144.156,76.0189 c 0,0 4.191,10.4766 4.844,16.0156 v 3e-4 c 0.469,3.9832 -0.473,8.0072 -0.711,12.0112 v 10e-4 c -0.286,4.819 9.994,9.243 11.624,17.242 v 0 c 0.765,3.753 -5.093,4.627 -5.295,7.749 v 0 c -0.109,1.695 2.393,2.846 2.309,4.542 v 0 c -0.068,1.368 -2.373,2.912 -2.438,3.595 v 0 c -0.043,0.46 1.357,1.684 0.775,3.81 v 10e-4 c -0.67,2.444 -2.44,1.851 -2.971,2.453 v 0.001 c -0.903,1.024 -0.195,4.465 -0.323,5.941 v 0 c -0.185,3.651 -2.432,6.03 -6.07,7.491 v 0 c -2.847,1.129 -5.138,1.23 -9.106,1.227 h -0.001 c -5.136,-0.004 -10.263,0.494 -12.333,8.589"
           style="fill:none;fill-opacity:0;stroke:#aab7c8;stroke-width:0.998303px;stroke-linecap:round;stroke-opacity:1"
           id="path894" /><path
           d="m 143.81,76.0189 c 0,0 4.191,10.4766 4.844,16.0156 v 3e-4 c 0.469,3.9832 -0.472,8.0072 -0.71,12.0112 v 10e-4 c -0.287,4.819 9.993,9.243 11.624,17.242 v 0 c 0.765,3.753 -5.094,4.627 -5.296,7.749 v 0 c -0.109,1.695 2.393,2.846 2.309,4.542 v 0 c -0.068,1.368 -2.373,2.912 -2.438,3.595 v 0 c -0.043,0.46 1.358,1.684 0.775,3.81 v 10e-4 c -0.67,2.444 -2.44,1.851 -2.971,2.453 v 0.001 c -0.902,1.024 -0.195,4.465 -0.322,5.941 v 0 c -0.186,3.651 -2.433,6.03 -6.071,7.491 v 0 c -2.847,1.129 -5.138,1.23 -9.105,1.227 h -0.001 c -5.137,-0.004 -10.263,0.494 -12.334,8.589"
           style="fill:none;fill-opacity:0;stroke:#a2b1c3;stroke-width:0.998303px;stroke-linecap:round;stroke-opacity:1"
           id="path895" /><path
           d="m 143.465,76.0189 c 0,0 4.191,10.4766 4.843,16.0156 v 3e-4 c 0.47,3.9832 -0.472,8.0072 -0.71,12.0112 v 10e-4 c -0.286,4.819 9.993,9.243 11.624,17.242 v 0 c 0.765,3.753 -5.094,4.627 -5.295,7.749 v 10e-4 c -0.11,1.694 2.393,2.845 2.309,4.541 v 0 c -0.068,1.368 -2.374,2.912 -2.438,3.595 h -0.001 c -0.043,0.46 1.358,1.684 0.775,3.81 v 10e-4 c -0.67,2.444 -2.44,1.852 -2.97,2.453 v 0.001 c -0.903,1.024 -0.195,4.465 -0.323,5.941 v 0 c -0.186,3.651 -2.432,6.03 -6.07,7.491 h -0.001 c -2.846,1.129 -5.137,1.23 -9.105,1.227 h -0.001 c -5.136,-0.004 -10.263,0.494 -12.334,8.589"
           style="fill:none;fill-opacity:0;stroke:#9aaabe;stroke-width:0.998303px;stroke-linecap:round;stroke-opacity:1"
           id="path896" /><path
           d="m 143.119,76.0189 c 0,0 4.191,10.4766 4.844,16.0156 v 3e-4 c 0.469,3.9833 -0.472,8.0082 -0.711,12.0112 v 10e-4 c -0.286,4.819 9.994,9.243 11.625,17.242 v 0 c 0.764,3.753 -5.094,4.627 -5.296,7.749 v 10e-4 c -0.109,1.694 2.393,2.845 2.309,4.541 v 0 c -0.068,1.368 -2.373,2.912 -2.438,3.595 v 0 c -0.043,0.46 1.358,1.684 0.775,3.81 v 10e-4 c -0.67,2.444 -2.44,1.852 -2.971,2.453 v 0.001 c -0.902,1.024 -0.195,4.465 -0.323,5.941 v 0 c -0.185,3.651 -2.432,6.03 -6.07,7.491 v 0 c -2.847,1.129 -5.138,1.23 -9.106,1.227 h -0.001 c -5.136,-0.004 -10.263,0.494 -12.333,8.589"
           style="fill:none;fill-opacity:0;stroke:#93a4b9;stroke-width:0.998303px;stroke-linecap:round;stroke-opacity:1"
           id="path897" /><path
           d="m 142.774,76.0189 c 0,0 4.19,10.4766 4.843,16.0156 v 4e-4 c 0.469,3.9832 -0.472,8.0081 -0.71,12.0111 v 10e-4 c -0.286,4.819 9.993,9.243 11.624,17.242 v 0 c 0.765,3.753 -5.094,4.627 -5.296,7.749 v 10e-4 c -0.109,1.694 2.394,2.845 2.31,4.541 v 0 c -0.068,1.368 -2.374,2.912 -2.439,3.595 v 10e-4 c -0.043,0.459 1.358,1.683 0.775,3.809 v 10e-4 c -0.67,2.444 -2.44,1.852 -2.97,2.453 l -0.001,0.001 c -0.902,1.024 -0.194,4.465 -0.322,5.941 v 0 c -0.186,3.651 -2.433,6.03 -6.071,7.491 v 0 c -2.847,1.129 -5.137,1.23 -9.105,1.227 h -0.001 c -5.136,-0.004 -10.263,0.494 -12.334,8.589"
           style="fill:none;fill-opacity:0;stroke:#8b9db4;stroke-width:0.998303px;stroke-linecap:round;stroke-opacity:1"
           id="path898" /><path
           d="m 142.428,76.0189 c 0,0 4.191,10.4766 4.844,16.0156 v 4e-4 c 0.469,3.9832 -0.473,8.0081 -0.711,12.0111 v 10e-4 c -0.286,4.819 9.994,9.243 11.624,17.242 v 0 c 0.765,3.753 -5.093,4.627 -5.295,7.749 v 10e-4 c -0.109,1.694 2.393,2.845 2.309,4.541 v 0 c -0.068,1.368 -2.373,2.912 -2.438,3.595 v 10e-4 c -0.043,0.459 1.357,1.683 0.775,3.809 v 10e-4 c -0.67,2.444 -2.44,1.852 -2.971,2.453 v 0.001 c -0.903,1.024 -0.195,4.465 -0.323,5.941 v 0 c -0.186,3.651 -2.432,6.03 -6.07,7.491 h -0.001 c -2.846,1.129 -5.137,1.23 -9.105,1.227 h -0.001 c -5.136,-0.004 -10.263,0.494 -12.333,8.589"
           style="fill:none;fill-opacity:0;stroke:#8397af;stroke-width:0.998303px;stroke-linecap:round;stroke-opacity:1"
           id="path899" /><path
           d="m 142.082,76.0189 c 0,0 4.191,10.4766 4.844,16.0156 v 4e-4 c 0.469,3.9832 -0.472,8.0081 -0.71,12.0111 l -0.001,10e-4 c -0.286,4.819 9.994,9.243 11.625,17.242 v 0 c 0.765,3.753 -5.094,4.627 -5.296,7.749 v 10e-4 c -0.109,1.694 2.393,2.845 2.309,4.541 v 0 c -0.068,1.368 -2.373,2.912 -2.438,3.595 v 10e-4 c -0.043,0.459 1.358,1.683 0.775,3.809 v 10e-4 c -0.67,2.444 -2.44,1.852 -2.971,2.453 v 0.001 c -0.902,1.024 -0.195,4.465 -0.322,5.941 v 0 c -0.186,3.651 -2.433,6.03 -6.071,7.491 v 0 c -2.847,1.129 -5.138,1.23 -9.105,1.227 h -0.001 c -5.137,-0.004 -10.263,0.494 -12.334,8.589"
           style="fill:none;fill-opacity:0;stroke:#7b90aa;stroke-width:0.998303px;stroke-linecap:round;stroke-opacity:1"
           id="path900" /><path
           d="m 141.737,76.0189 c 0,0 4.191,10.4766 4.843,16.0156 v 4e-4 c 0.47,3.9832 -0.472,8.0081 -0.71,12.0111 v 10e-4 c -0.286,4.819 9.993,9.243 11.624,17.242 v 0 c 0.765,3.753 -5.094,4.627 -5.295,7.749 v 10e-4 c -0.109,1.694 2.393,2.845 2.309,4.541 v 0 c -0.068,1.369 -2.374,2.912 -2.438,3.595 l -0.001,10e-4 c -0.042,0.459 1.358,1.683 0.775,3.809 v 10e-4 c -0.67,2.444 -2.44,1.852 -2.97,2.453 l -0.001,0.001 c -0.902,1.024 -0.194,4.465 -0.322,5.941 v 0 c -0.186,3.651 -2.432,6.03 -6.07,7.491 h -0.001 c -2.846,1.129 -5.137,1.23 -9.105,1.227 h -0.001 c -5.136,-0.004 -10.263,0.494 -12.334,8.589"
           style="fill:none;fill-opacity:0;stroke:#748aa5;stroke-width:0.998303px;stroke-linecap:round;stroke-opacity:1"
           id="path901" /><path
           d="m 141.391,76.0189 c 0,0 4.191,10.4766 4.844,16.0156 v 5e-4 c 0.469,3.9831 -0.472,8.008 -0.711,12.011 v 10e-4 c -0.286,4.819 9.994,9.243 11.625,17.242 v 0 c 0.764,3.753 -5.094,4.627 -5.296,7.749 v 10e-4 c -0.109,1.694 2.393,2.845 2.309,4.541 v 0 c -0.068,1.369 -2.373,2.912 -2.438,3.595 v 10e-4 c -0.043,0.459 1.358,1.683 0.775,3.809 v 10e-4 c -0.67,2.444 -2.44,1.852 -2.971,2.453 v 0.001 c -0.902,1.024 -0.195,4.465 -0.323,5.941 v 0 c -0.185,3.651 -2.432,6.03 -6.07,7.491 v 0 c -2.847,1.129 -5.138,1.23 -9.106,1.227 h -0.001 c -5.136,-0.004 -10.263,0.494 -12.333,8.589"
           style="fill:none;fill-opacity:0;stroke:#6c83a0;stroke-width:0.998303px;stroke-linecap:round;stroke-opacity:1"
           id="path902" /><path
           d="m 141.046,76.0189 c 0,0 4.19,10.4766 4.843,16.0156 v 5e-4 c 0.469,3.9832 -0.472,8.008 -0.71,12.011 v 10e-4 c -0.286,4.819 9.993,9.243 11.624,17.242 v 0 c 0.765,3.753 -5.094,4.627 -5.296,7.749 v 10e-4 c -0.109,1.694 2.394,2.845 2.31,4.541 v 0 c -0.069,1.369 -2.374,2.912 -2.439,3.595 v 10e-4 c -0.042,0.459 1.358,1.683 0.775,3.809 v 10e-4 c -0.67,2.444 -2.44,1.852 -2.97,2.453 l -0.001,0.001 c -0.902,1.024 -0.194,4.465 -0.322,5.941 v 0 c -0.186,3.651 -2.433,6.03 -6.071,7.491 v 0 c -2.847,1.129 -5.138,1.23 -9.105,1.227 h -0.001 c -5.136,-0.004 -10.263,0.494 -12.334,8.589"
           style="fill:none;fill-opacity:0;stroke:#647d9b;stroke-width:0.998303px;stroke-linecap:round;stroke-opacity:1"
           id="path903" /><path
           d="m 140.7,76.0189 c 0,0 4.191,10.4766 4.843,16.0156 l 0.001,5e-4 c 0.469,3.9832 -0.473,8.008 -0.711,12.011 v 10e-4 c -0.286,4.819 9.994,9.243 11.624,17.242 v 0 c 0.765,3.753 -5.093,4.627 -5.295,7.749 v 10e-4 c -0.109,1.694 2.393,2.845 2.309,4.541 v 0 c -0.068,1.369 -2.373,2.912 -2.438,3.595 v 10e-4 c -0.043,0.459 1.357,1.683 0.775,3.809 l -0.001,10e-4 c -0.669,2.444 -2.439,1.852 -2.97,2.453 v 0.001 c -0.902,1.024 -0.195,4.465 -0.323,5.941 v 0 c -0.186,3.651 -2.432,6.03 -6.07,7.491 h -10e-4 c -2.846,1.129 -5.137,1.23 -9.105,1.227 h -0.001 c -5.136,-0.004 -10.263,0.494 -12.333,8.589"
           style="fill:none;fill-opacity:0;stroke:#5d7696;stroke-width:0.998303px;stroke-linecap:round;stroke-opacity:1"
           id="path904" /><path
           d="m 140.354,76.0189 c 0,0 4.191,10.4766 4.844,16.0156 v 5e-4 c 0.469,3.9832 -0.472,8.008 -0.71,12.011 l -0.001,10e-4 c -0.285,4.819 9.994,9.243 11.625,17.242 v 0 c 0.764,3.753 -5.094,4.627 -5.296,7.749 v 10e-4 c -0.109,1.694 2.393,2.845 2.309,4.541 v 0 c -0.068,1.369 -2.373,2.912 -2.438,3.595 v 10e-4 c -0.043,0.459 1.358,1.683 0.775,3.809 v 10e-4 c -0.67,2.444 -2.44,1.852 -2.971,2.453 v 0.001 c -0.902,1.025 -0.195,4.465 -0.322,5.941 v 0 c -0.186,3.651 -2.433,6.03 -6.071,7.491 v 0 c -2.847,1.129 -5.138,1.23 -9.106,1.227 v 0 c -5.137,-0.004 -10.264,0.494 -12.334,8.589"
           style="fill:none;fill-opacity:0;stroke:#557091;stroke-width:0.998303px;stroke-linecap:round;stroke-opacity:1"
           id="path905" /><path
           d="m 140.009,76.0189 c 0,0 4.191,10.4766 4.843,16.0156 v 6e-4 c 0.47,3.9831 -0.472,8.0079 -0.71,12.0109 v 10e-4 c -0.286,4.819 9.993,9.244 11.624,17.242 v 0 c 0.765,3.753 -5.094,4.627 -5.295,7.749 v 10e-4 c -0.109,1.694 2.393,2.845 2.309,4.541 v 0 c -0.068,1.369 -2.374,2.912 -2.439,3.595 v 10e-4 c -0.042,0.459 1.358,1.683 0.775,3.809 v 10e-4 c -0.67,2.444 -2.44,1.852 -2.97,2.453 l -10e-4,0.001 c -0.902,1.025 -0.194,4.465 -0.322,5.941 v 0 c -0.186,3.651 -2.433,6.03 -6.07,7.491 h -10e-4 c -2.846,1.129 -5.137,1.23 -9.105,1.227 h -0.001 c -5.136,-0.004 -10.263,0.494 -12.334,8.589"
           style="fill:none;fill-opacity:0;stroke:#4d698c;stroke-width:0.998303px;stroke-linecap:round;stroke-opacity:1"
           id="path906" /><path
           d="m 139.663,76.0189 c 0,0 4.191,10.4766 4.844,16.0156 v 6e-4 c 0.469,3.9831 -0.472,8.0079 -0.711,12.0109 v 10e-4 c -0.285,4.819 9.994,9.244 11.625,17.242 v 0 c 0.764,3.753 -5.094,4.627 -5.296,7.749 v 10e-4 c -0.109,1.694 2.393,2.845 2.309,4.541 v 0 c -0.068,1.369 -2.373,2.912 -2.438,3.595 v 10e-4 c -0.043,0.459 1.357,1.683 0.775,3.809 v 10e-4 c -0.67,2.444 -2.44,1.852 -2.971,2.453 v 0.001 c -0.902,1.025 -0.195,4.465 -0.323,5.941 v 0 c -0.185,3.651 -2.432,6.03 -6.07,7.491 v 0 c -2.847,1.129 -5.138,1.23 -9.106,1.227 H 132.3 c -5.136,-0.004 -10.263,0.494 -12.333,8.589"
           style="fill:none;fill-opacity:0;stroke:#456387;stroke-width:0.998303px;stroke-linecap:round;stroke-opacity:1"
           id="path907" /><path
           d="m 139.318,76.0189 c 0,0 4.19,10.4766 4.843,16.0156 v 6e-4 c 0.469,3.9831 -0.472,8.0079 -0.71,12.0109 v 10e-4 c -0.286,4.819 9.993,9.244 11.624,17.242 v 0 c 0.765,3.753 -5.094,4.627 -5.296,7.749 v 10e-4 c -0.109,1.694 2.394,2.845 2.31,4.541 v 0 c -0.069,1.369 -2.374,2.912 -2.439,3.595 v 10e-4 c -0.042,0.459 1.358,1.683 0.775,3.809 v 10e-4 c -0.67,2.444 -2.44,1.852 -2.97,2.453 l -0.001,0.001 c -0.902,1.025 -0.194,4.465 -0.322,5.941 v 0 c -0.186,3.651 -2.433,6.03 -6.071,7.491 v 0 c -2.847,1.129 -5.138,1.23 -9.105,1.227 h -10e-4 c -5.136,-0.004 -10.263,0.494 -12.334,8.589"
           style="fill:none;fill-opacity:0;stroke:#3e5c82;stroke-width:0.998303px;stroke-linecap:round;stroke-opacity:1"
           id="path908" /><path
           d="m 138.972,76.0189 c 0,0 4.191,10.4766 4.843,16.0156 l 0.001,6e-4 c 0.469,3.9832 -0.473,8.0079 -0.711,12.0109 v 10e-4 c -0.286,4.819 9.994,9.244 11.624,17.242 v 0 c 0.765,3.753 -5.093,4.627 -5.295,7.749 v 10e-4 c -0.109,1.694 2.393,2.845 2.309,4.541 v 0 c -0.068,1.369 -2.373,2.912 -2.438,3.595 v 10e-4 c -0.043,0.46 1.357,1.683 0.775,3.809 l -0.001,10e-4 c -0.67,2.444 -2.439,1.852 -2.97,2.453 l -0.001,0.001 c -0.901,1.025 -0.194,4.465 -0.322,5.941 v 0 c -0.186,3.651 -2.432,6.03 -6.07,7.491 h -0.001 c -2.846,1.129 -5.137,1.23 -9.105,1.227 h -0.001 c -5.136,-0.004 -10.263,0.494 -12.333,8.589"
           style="fill:none;fill-opacity:0;stroke:#36567d;stroke-width:0.998303px;stroke-linecap:round;stroke-opacity:1"
           id="path909" /><path
           d="m 138.626,76.0189 c 0,0 4.191,10.4766 4.844,16.0156 v 6e-4 c 0.469,3.9832 -0.472,8.0079 -0.711,12.0109 v 10e-4 c -0.285,4.819 9.994,9.244 11.625,17.242 v 0 c 0.764,3.753 -5.094,4.627 -5.296,7.749 v 10e-4 c -0.109,1.694 2.393,2.845 2.309,4.541 v 0 c -0.068,1.369 -2.373,2.912 -2.438,3.595 v 10e-4 c -0.042,0.46 1.358,1.683 0.775,3.809 v 10e-4 c -0.67,2.444 -2.44,1.852 -2.971,2.453 v 0.001 c -0.902,1.025 -0.195,4.465 -0.322,5.941 h -0.001 c -0.185,3.651 -2.432,6.03 -6.07,7.491 v 0 c -2.847,1.129 -5.138,1.23 -9.106,1.227 v 0 c -5.137,-0.004 -10.264,0.494 -12.334,8.589"
           style="fill:none;fill-opacity:0;stroke:#2e4f78;stroke-width:0.998303px;stroke-linecap:round;stroke-opacity:1"
           id="path910" /><path
           d="m 138.281,76.0189 c 0,0 4.191,10.4766 4.843,16.0156 v 7e-4 c 0.47,3.9831 -0.472,8.0078 -0.71,12.0108 v 10e-4 c -0.286,4.819 9.993,9.244 11.624,17.242 v 0 c 0.765,3.753 -5.094,4.627 -5.295,7.749 v 10e-4 c -0.109,1.694 2.393,2.845 2.309,4.541 v 0 c -0.069,1.369 -2.374,2.912 -2.439,3.595 v 10e-4 c -0.042,0.46 1.358,1.683 0.775,3.809 v 10e-4 c -0.67,2.444 -2.44,1.852 -2.97,2.453 l -0.001,0.001 c -0.902,1.025 -0.194,4.465 -0.322,5.941 v 0 c -0.186,3.651 -2.433,6.03 -6.07,7.491 h -0.001 c -2.846,1.129 -5.137,1.23 -9.105,1.227 h -0.001 c -5.136,-0.004 -10.263,0.494 -12.334,8.589"
           style="fill:none;fill-opacity:0;stroke:#274973;stroke-width:0.998303px;stroke-linecap:round;stroke-opacity:1"
           id="path911" /><path
           d="m 137.935,76.0189 c 0,0 4.191,10.4766 4.844,16.0156 v 7e-4 c 0.469,3.9831 -0.473,8.0078 -0.711,12.0108 v 10e-4 c -0.285,4.819 9.994,9.244 11.624,17.242 h 0.001 c 0.764,3.753 -5.094,4.627 -5.296,7.749 v 10e-4 c -0.109,1.694 2.393,2.845 2.309,4.541 v 0 c -0.068,1.369 -2.373,2.912 -2.438,3.595 v 10e-4 c -0.042,0.46 1.357,1.683 0.775,3.809 v 10e-4 c -0.67,2.444 -2.44,1.852 -2.971,2.453 v 0.001 c -0.902,1.025 -0.195,4.465 -0.323,5.941 v 0 c -0.185,3.651 -2.432,6.03 -6.07,7.491 h -0.001 c -2.846,1.129 -5.137,1.23 -9.105,1.227 h -0.001 c -5.136,-0.004 -10.263,0.494 -12.333,8.589"
           style="fill:none;fill-opacity:0;stroke:#1f426e;stroke-width:0.998303px;stroke-linecap:round;stroke-opacity:1"
           id="path912" /><path
           d="m 137.59,76.0189 c 0,0 4.19,10.4766 4.843,16.0156 v 7e-4 c 0.469,3.9831 -0.472,8.0078 -0.71,12.0108 v 10e-4 c -0.286,4.819 9.993,9.244 11.624,17.242 v 0 c 0.764,3.753 -5.094,4.627 -5.296,7.749 v 10e-4 c -0.108,1.694 2.394,2.845 2.31,4.541 v 0 c -0.069,1.369 -2.374,2.912 -2.439,3.595 v 10e-4 c -0.042,0.46 1.358,1.683 0.775,3.809 v 10e-4 c -0.67,2.444 -2.44,1.852 -2.97,2.453 l -0.001,0.001 c -0.902,1.025 -0.194,4.465 -0.322,5.941 v 0 c -0.186,3.651 -2.433,6.03 -6.071,7.491 v 0 c -2.847,1.129 -5.138,1.23 -9.105,1.227 h -0.001 c -5.137,-0.004 -10.263,0.494 -12.334,8.589"
           style="fill:none;fill-opacity:0;stroke:#173c69;stroke-width:0.998303px;stroke-linecap:round;stroke-opacity:1"
           id="path913" /><path
           d="m 137.244,76.0189 c 0,0 4.191,10.4766 4.843,16.0156 l 0.001,7e-4 c 0.469,3.9831 -0.473,8.0078 -0.711,12.0108 v 10e-4 c -0.285,4.819 9.994,9.244 11.624,17.242 v 0 c 0.765,3.753 -5.093,4.627 -5.295,7.749 v 10e-4 c -0.109,1.694 2.393,2.845 2.309,4.541 v 0 c -0.068,1.369 -2.374,2.912 -2.438,3.595 v 10e-4 c -0.043,0.46 1.357,1.683 0.775,3.809 l -0.001,10e-4 c -0.67,2.444 -2.439,1.852 -2.97,2.453 l -0.001,0.001 c -0.901,1.025 -0.194,4.465 -0.322,5.941 v 0 c -0.186,3.651 -2.432,6.03 -6.07,7.491 h -0.001 c -2.846,1.129 -5.137,1.23 -9.105,1.227 h -0.001 c -5.136,-0.004 -10.263,0.494 -12.334,8.589"
           style="fill:none;fill-opacity:0;stroke:#103665;stroke-width:0.998303px;stroke-linecap:round;stroke-opacity:1"
           id="path914" /></g><g
         id="g961"
         transform="matrix(1.0047994,0,0,1.0038762,-78.010592,1.2074657)"
         style="stroke-width:0.99568"><path
           d="m 203.30951,100.55544 c 0,0 1.7177,4.359 1.9853,6.663 v 0 c 0.1924,1.657 -0.1936,3.331 -0.2912,4.997 v 0 c -0.1175,2.005 4.0963,3.845 4.7647,7.173 v 0 c 0.3137,1.561 -2.0879,1.925 -2.1706,3.224 v 0 c -0.0448,0.705 0.981,1.183 0.9466,1.889 v 0 c -0.0278,0.569 -0.9729,1.211 -0.9995,1.496 v 0 c -0.0178,0.191 0.5566,0.7 0.3176,1.585 v 0 c -0.2745,1.017 -1.0001,0.77 -1.2176,1.021 v 0 c -0.37,0.426 -0.0799,1.857 -0.1324,2.471 v 0 c -0.076,1.519 -0.9969,2.509 -2.4882,3.117 v 0 c -1.1669,0.47 -2.1059,0.511 -3.7324,0.51 v 0 c -2.1054,-0.001 -4.2071,0.206 -5.0559,3.573"
           style="fill:none;fill-opacity:0;stroke:#ffffff;stroke-width:0.99568;stroke-linecap:round;stroke-dasharray:none;stroke-opacity:1"
           id="path915" /><path
           d="m 203.51861,100.55544 c 0,0 1.7178,4.359 1.9853,6.663 v 0 c 0.1924,1.657 -0.1935,3.331 -0.2912,4.997 v 0 c -0.1175,2.005 4.0963,3.845 4.7648,7.173 v 0 c 0.3136,1.561 -2.088,1.925 -2.1706,3.224 v 0 c -0.0448,0.705 0.9809,1.183 0.9465,1.889 v 0 c -0.0279,0.569 -0.9729,1.211 -0.9995,1.496 v 0 c -0.0178,0.191 0.5566,0.7 0.3177,1.585 v 0 c -0.2746,1.017 -1.0002,0.77 -1.2177,1.021 v 0 c -0.37,0.426 -0.0799,1.857 -0.1323,2.471 v 0 c -0.0761,1.519 -0.997,2.509 -2.4883,3.117 v 0 c -1.1669,0.47 -2.1059,0.511 -3.7323,0.51 h -1e-4 c -2.1054,-0.001 -4.2071,0.206 -5.0558,3.573"
           style="fill:none;fill-opacity:0;stroke:#f3f5f7;stroke-width:0.99568;stroke-linecap:round;stroke-dasharray:none;stroke-opacity:1"
           id="path916" /><path
           d="m 203.72771,100.55544 c 0,0 1.7178,4.359 1.9853,6.663 v 0 c 0.1924,1.657 -0.1935,3.331 -0.2912,4.997 v 0 c -0.1174,2.005 4.0963,3.845 4.7648,7.173 v 0 c 0.3136,1.561 -2.0879,1.925 -2.1706,3.224 v 0 c -0.0448,0.705 0.9809,1.183 0.9465,1.889 v 0 c -0.0279,0.569 -0.9729,1.211 -0.9995,1.496 v 0 c -0.0177,0.191 0.5566,0.7 0.3177,1.585 v 0 c -0.2746,1.017 -1.0002,0.77 -1.2177,1.021 v 0 c -0.37,0.426 -0.0799,1.857 -0.1323,2.471 v 0 c -0.0761,1.519 -0.997,2.509 -2.4883,3.117 v 0 c -1.1669,0.47 -2.1059,0.511 -3.7323,0.51 h -10e-5 c -2.1054,-0.001 -4.2071,0.206 -5.0558,3.573"
           style="fill:none;fill-opacity:0;stroke:#e8ebf0;stroke-width:0.99568;stroke-linecap:round;stroke-dasharray:none;stroke-opacity:1"
           id="path917" /><path
           d="m 203.93681,100.55544 c 0,0 1.7178,4.359 1.9853,6.663 h 1e-4 c 0.1923,1.657 -0.1936,3.331 -0.2912,4.997 v 0 c -0.1174,2.005 4.0962,3.845 4.7647,7.173 v 0 c 0.3136,1.561 -2.0879,1.925 -2.1706,3.224 v 0 c -0.0448,0.705 0.981,1.183 0.9465,1.889 v 0 c -0.0279,0.569 -0.9729,1.211 -0.9994,1.496 v 0 c -0.0177,0.191 0.5565,0.7 0.3176,1.585 v 0 c -0.2746,1.017 -1.0002,0.77 -1.2176,1.021 h -1e-4 c -0.3699,0.426 -0.0799,1.857 -0.1323,2.471 v 0 c -0.0761,1.519 -0.997,2.509 -2.4882,3.117 h -2e-4 c -1.1668,0.47 -2.1058,0.511 -3.7322,0.51 h -1e-4 c -2.1054,-0.001 -4.207,0.206 -5.0558,3.573"
           style="fill:none;fill-opacity:0;stroke:#dce2e9;stroke-width:0.99568;stroke-linecap:round;stroke-dasharray:none;stroke-opacity:1"
           id="path918" /><path
           d="m 204.14601,100.55544 c 0,0 1.7177,4.359 1.9853,6.663 v 0 c 0.1924,1.657 -0.1936,3.331 -0.2912,4.997 v 0 c -0.1174,2.005 4.0962,3.845 4.7647,7.173 v 0 c 0.3136,1.561 -2.0879,1.925 -2.1706,3.224 v 0 c -0.0447,0.705 0.981,1.183 0.9465,1.889 v 0 c -0.0279,0.569 -0.9728,1.211 -0.9994,1.496 v 0 c -0.0176,0.191 0.5565,0.7 0.3176,1.585 v 0 c -0.2746,1.017 -1.0001,0.77 -1.2176,1.021 h -1e-4 c -0.3699,0.426 -0.0798,1.857 -0.1323,2.471 v 0 c -0.0761,1.519 -0.997,2.509 -2.4882,3.117 h -2e-4 c -1.1668,0.47 -2.1058,0.511 -3.7322,0.51 h -1e-4 c -2.1054,-0.001 -4.207,0.206 -5.0558,3.573"
           style="fill:none;fill-opacity:0;stroke:#d1d8e1;stroke-width:0.99568;stroke-linecap:round;stroke-dasharray:none;stroke-opacity:1"
           id="path919" /><path
           d="m 204.35511,100.55544 c 0,0 1.7177,4.359 1.9853,6.663 v 0 c 0.1924,1.657 -0.1936,3.331 -0.2912,4.997 v 0 c -0.1173,2.005 4.0963,3.845 4.7647,7.173 h 1e-4 c 0.3135,1.561 -2.088,1.925 -2.1707,3.224 v 0 c -0.0447,0.705 0.981,1.183 0.9466,1.889 h -1e-4 c -0.0279,0.57 -0.9728,1.212 -0.9994,1.496 v 0 c -0.0176,0.191 0.5565,0.7 0.3176,1.585 v 0 c -0.2746,1.017 -1.0001,0.77 -1.2176,1.021 h -1e-4 c -0.3699,0.426 -0.0798,1.857 -0.1323,2.471 v 10e-4 c -0.0761,1.518 -0.997,2.508 -2.4882,3.116 h -2e-4 c -1.1668,0.47 -2.1058,0.511 -3.7322,0.51 h -1e-4 c -2.1054,-0.001 -4.207,0.206 -5.0558,3.573"
           style="fill:none;fill-opacity:0;stroke:#c6cfda;stroke-width:0.99568;stroke-linecap:round;stroke-dasharray:none;stroke-opacity:1"
           id="path920" /><path
           d="m 204.56421,100.55544 c 0,0 1.7178,4.359 1.9853,6.663 v 0 c 0.1924,1.657 -0.1935,3.331 -0.2912,4.997 v 0 c -0.1172,2.005 4.0963,3.845 4.7648,7.173 v 0 c 0.3134,1.561 -2.088,1.925 -2.1706,3.224 h -1e-4 c -0.0447,0.705 0.981,1.183 0.9466,1.889 v 0 c -0.0281,0.57 -0.9729,1.212 -0.9995,1.496 v 0 c -0.0175,0.191 0.5565,0.7 0.3177,1.585 h -1e-4 c -0.2746,1.017 -1.0001,0.77 -1.2176,1.021 h -1e-4 c -0.3698,0.426 -0.0798,1.858 -0.1322,2.471 v 10e-4 c -0.0762,1.518 -0.9971,2.508 -2.4883,3.116 h -2e-4 c -1.1668,0.47 -2.1058,0.511 -3.7321,0.51 h -3e-4 c -2.1053,-0.001 -4.2069,0.206 -5.0556,3.573"
           style="fill:none;fill-opacity:0;stroke:#bac5d3;stroke-width:0.99568;stroke-linecap:round;stroke-dasharray:none;stroke-opacity:1"
           id="path921" /><path
           d="m 204.77331,100.55544 c 0,0 1.7178,4.359 1.9853,6.663 v 0 c 0.1924,1.657 -0.1935,3.331 -0.2912,4.997 v 0 c -0.1172,2.005 4.0963,3.846 4.7648,7.173 v 0 c 0.3134,1.561 -2.0879,1.925 -2.1706,3.224 v 0 c -0.0447,0.705 0.9809,1.183 0.9465,1.889 v 0 c -0.0281,0.57 -0.9729,1.212 -0.9995,1.496 v 0 c -0.0174,0.191 0.5565,0.7 0.3177,1.585 h -1e-4 c -0.2746,1.017 -1.0001,0.77 -1.2176,1.021 h -1e-4 c -0.3698,0.426 -0.0798,1.858 -0.1322,2.471 v 10e-4 c -0.0762,1.518 -0.9971,2.508 -2.4882,3.116 h -3e-4 c -1.1668,0.47 -2.1058,0.511 -3.7321,0.51 h -3e-4 c -2.1054,-0.001 -4.2069,0.206 -5.0556,3.573"
           style="fill:none;fill-opacity:0;stroke:#afbccb;stroke-width:0.99568;stroke-linecap:round;stroke-dasharray:none;stroke-opacity:1"
           id="path922" /><path
           d="m 204.98241,100.55544 c 0,0 1.7178,4.359 1.9853,6.663 h 10e-5 c 0.1923,1.657 -0.1936,3.331 -0.2912,4.997 v 0 c -0.1172,2.005 4.0962,3.846 4.7647,7.173 v 0 c 0.3134,1.561 -2.0879,1.925 -2.1706,3.224 v 0 c -0.0447,0.705 0.981,1.183 0.9465,1.889 v 0 c -0.0281,0.57 -0.9729,1.212 -0.9994,1.496 h -10e-5 c -0.0174,0.191 0.5565,0.7 0.3177,1.585 h -1e-4 c -0.2746,1.017 -1.0001,0.77 -1.2175,1.021 h -2e-4 c -0.3698,0.426 -0.0798,1.858 -0.1322,2.471 v 10e-4 c -0.0762,1.518 -0.997,2.508 -2.4882,3.116 h -4e-4 c -1.1667,0.47 -2.1057,0.511 -3.732,0.51 h -3e-4 c -2.1054,-0.001 -4.2069,0.206 -5.0556,3.573"
           style="fill:none;fill-opacity:0;stroke:#a3b2c4;stroke-width:0.99568;stroke-linecap:round;stroke-dasharray:none;stroke-opacity:1"
           id="path923" /><path
           d="m 205.19161,100.55544 c 0,0 1.7177,4.359 1.9853,6.663 v 0 c 0.1923,1.657 -0.1936,3.331 -0.2912,4.997 v 0 c -0.1171,2.005 4.0963,3.846 4.7647,7.173 h 1e-4 c 0.3133,1.561 -2.088,1.925 -2.1707,3.224 v 0 c -0.0446,0.705 0.981,1.183 0.9465,1.889 v 0 c -0.0281,0.57 -0.9729,1.212 -0.9994,1.496 v 0 c -0.0174,0.191 0.5564,0.7 0.3176,1.585 h -1e-4 c -0.2746,1.017 -1,0.77 -1.2175,1.021 h -2e-4 c -0.3697,0.426 -0.0798,1.858 -0.1322,2.471 v 10e-4 c -0.0762,1.518 -0.997,2.508 -2.4882,3.116 h -4e-4 c -1.1667,0.47 -2.1057,0.511 -3.732,0.51 h -3e-4 c -2.1054,-0.001 -4.2069,0.206 -5.0556,3.573"
           style="fill:none;fill-opacity:0;stroke:#98a8bd;stroke-width:0.99568;stroke-linecap:round;stroke-dasharray:none;stroke-opacity:1"
           id="path924" /><path
           d="m 205.40071,100.55544 c 0,0 1.7177,4.359 1.9853,6.663 v 0 c 0.1923,1.657 -0.1936,3.331 -0.2912,4.997 v 0 c -0.117,2.005 4.0963,3.846 4.7647,7.173 h 1e-4 c 0.3133,1.561 -2.088,1.925 -2.1707,3.224 v 0 c -0.0446,0.705 0.981,1.183 0.9466,1.889 h -1e-4 c -0.0282,0.57 -0.9728,1.212 -0.9994,1.496 v 0 c -0.0173,0.191 0.5565,0.7 0.3177,1.585 h -1e-4 c -0.2747,1.017 -1.0001,0.77 -1.2176,1.021 h -3e-4 c -0.3696,0.426 -0.0796,1.858 -0.1321,2.471 v 10e-4 c -0.0762,1.518 -0.997,2.508 -2.4882,3.116 h -4e-4 c -1.1667,0.47 -2.1057,0.511 -3.732,0.51 h -3e-4 c -2.1054,-0.001 -4.2068,0.206 -5.0556,3.573"
           style="fill:none;fill-opacity:0;stroke:#8d9fb5;stroke-width:0.99568;stroke-linecap:round;stroke-dasharray:none;stroke-opacity:1"
           id="path925" /><path
           d="m 205.60981,100.55544 c 0,0 1.7178,4.359 1.9853,6.663 v 0 c 0.1924,1.657 -0.1935,3.331 -0.2912,4.997 v 0 c -0.117,2.005 4.0963,3.846 4.7648,7.173 v 0 c 0.3133,1.561 -2.088,1.925 -2.1706,3.224 h -1e-4 c -0.0446,0.705 0.981,1.183 0.9466,1.889 v 0 c -0.0283,0.57 -0.9729,1.212 -0.9995,1.496 v 0 c -0.0172,0.191 0.5565,0.7 0.3177,1.585 h -1e-4 c -0.2747,1.017 -1.0001,0.77 -1.2176,1.021 h -3e-4 c -0.3696,0.426 -0.0796,1.858 -0.132,2.471 v 10e-4 c -0.0762,1.518 -0.9971,2.508 -2.4883,3.116 h -4e-4 c -1.1667,0.47 -2.1057,0.511 -3.7319,0.51 h -4e-4 c -2.1054,-0.001 -4.2068,0.206 -5.0555,3.573"
           style="fill:none;fill-opacity:0;stroke:#8195ae;stroke-width:0.99568;stroke-linecap:round;stroke-dasharray:none;stroke-opacity:1"
           id="path926" /><path
           d="m 205.81891,100.55544 c 0,0 1.7178,4.359 1.9853,6.663 h 10e-5 c 0.1923,1.657 -0.1936,3.331 -0.2913,4.997 v 0 c -0.1169,2.005 4.0963,3.846 4.7648,7.173 v 0 c 0.3133,1.561 -2.0879,1.925 -2.1706,3.224 v 0 c -0.0446,0.705 0.9809,1.183 0.9465,1.889 v 0 c -0.0283,0.57 -0.9729,1.212 -0.9995,1.496 v 0 c -0.0172,0.191 0.5565,0.7 0.3177,1.585 h -1e-4 c -0.2747,1.017 -1.0001,0.77 -1.2176,1.021 h -3e-4 c -0.3695,0.427 -0.0796,1.858 -0.132,2.471 v 10e-4 c -0.0762,1.518 -0.9971,2.508 -2.4882,3.116 h -5e-4 c -1.1667,0.47 -2.1057,0.511 -3.7319,0.51 h -5e-4 c -2.1053,-0.001 -4.2067,0.206 -5.0554,3.573"
           style="fill:none;fill-opacity:0;stroke:#768ca7;stroke-width:0.99568;stroke-linecap:round;stroke-dasharray:none;stroke-opacity:1"
           id="path927" /><path
           d="m 206.02801,100.55544 c 0,0 1.7178,4.359 1.9853,6.663 h 1e-4 c 0.1923,1.657 -0.1936,3.331 -0.2912,4.997 h -1e-4 c -0.1168,2.005 4.0964,3.846 4.7648,7.173 h 1e-4 c 0.3132,1.561 -2.088,1.925 -2.1707,3.224 v 0 c -0.0446,0.705 0.9809,1.183 0.9465,1.889 v 0 c -0.0283,0.57 -0.9729,1.212 -0.9994,1.496 h -1e-4 c -0.0171,0.191 0.5565,0.7 0.3177,1.585 h -1e-4 c -0.2747,1.017 -1.0001,0.77 -1.2175,1.021 h -4e-4 c -0.3695,0.427 -0.0796,1.858 -0.132,2.471 v 10e-4 c -0.0762,1.519 -0.9971,2.508 -2.4882,3.116 h -6e-4 c -1.1666,0.47 -2.1056,0.511 -3.7318,0.51 h -5e-4 c -2.1053,-0.001 -4.2067,0.206 -5.0554,3.573"
           style="fill:none;fill-opacity:0;stroke:#6b829f;stroke-width:0.99568;stroke-linecap:round;stroke-dasharray:none;stroke-opacity:1"
           id="path928" /><path
           d="m 206.23721,100.55544 c 0,0 1.7177,4.359 1.9853,6.663 v 0 c 0.1923,1.657 -0.1936,3.331 -0.2912,4.997 v 0 c -0.1169,2.005 4.0963,3.846 4.7647,7.173 h 1e-4 c 0.31318,1.561 -2.088,1.925 -2.1707,3.224 v 0 c -0.0445,0.705 0.981,1.183 0.9465,1.889 v 0.001 c -0.0284,0.569 -0.9729,1.211 -0.9994,1.495 h -1e-4 c -0.017,0.192 0.5565,0.701 0.3177,1.585 h -1e-4 c -0.2747,1.017 -1.0001,0.77 -1.2175,1.021 h -4e-4 c -0.3695,0.427 -0.0796,1.858 -0.132,2.471 v 10e-4 c -0.0762,1.519 -0.9971,2.508 -2.4882,3.116 h -6e-4 c -1.1666,0.47 -2.1056,0.511 -3.7318,0.51 h -5e-4 c -2.1053,-0.001 -4.2067,0.206 -5.0554,3.573"
           style="fill:none;fill-opacity:0;stroke:#5f7998;stroke-width:0.99568;stroke-linecap:round;stroke-dasharray:none;stroke-opacity:1"
           id="path929" /><path
           d="m 206.44631,100.55544 c 0,0 1.7177,4.359 1.9853,6.663 v 0 c 0.1923,1.657 -0.1936,3.331 -0.2912,4.997 v 0 c -0.1168,2.005 4.0963,3.846 4.76473,7.173 h 8e-5 c 0.31317,1.561 -2.08801,1.925 -2.17071,3.224 v 0 c -0.0445,0.705 0.981,1.183 0.9466,1.889 l -1e-4,0.001 c -0.0284,0.569 -0.9728,1.211 -0.9994,1.495 v 0 c -0.017,0.192 0.5564,0.701 0.3177,1.585 h -2e-4 c -0.2747,1.017 -1,0.77 -1.2175,1.021 h -4e-4 c -0.3694,0.427 -0.0795,1.858 -0.132,2.471 v 10e-4 c -0.0762,1.519 -0.9971,2.508 -2.4882,3.116 h -6e-4 c -1.1666,0.47 -2.1056,0.511 -3.7318,0.51 h -5e-4 c -2.1053,-0.001 -4.2067,0.206 -5.0554,3.573"
           style="fill:none;fill-opacity:0;stroke:#546f91;stroke-width:0.99568;stroke-linecap:round;stroke-dasharray:none;stroke-opacity:1"
           id="path930" /><path
           d="m 206.65541,100.55544 c 0,0 1.7178,4.359 1.9853,6.663 h 10e-5 c 0.1922,1.657 -0.1936,3.331 -0.2913,4.997 v 0 c -0.1167,2.005 4.0963,3.846 4.76475,7.173 h 9e-5 c 0.31313,1.561 -2.08804,1.925 -2.17064,3.224 h -1e-4 c -0.0445,0.705 0.981,1.184 0.9466,1.889 l -1e-4,0.001 c -0.0284,0.569 -0.9728,1.211 -0.9994,1.495 v 0 c -0.017,0.192 0.5564,0.701 0.3177,1.585 h -2e-4 c -0.2747,1.017 -1,0.77 -1.2175,1.021 h -4e-4 c -0.3694,0.427 -0.0795,1.858 -0.1319,2.471 l -1e-4,10e-4 c -0.0762,1.519 -0.9971,2.508 -2.4882,3.116 h -6e-4 c -1.1666,0.47 -2.1056,0.511 -3.7317,0.51 h -6e-4 c -2.1053,-0.001 -4.2067,0.206 -5.0553,3.573"
           style="fill:none;fill-opacity:0;stroke:#486589;stroke-width:0.99568;stroke-linecap:round;stroke-dasharray:none;stroke-opacity:1"
           id="path931" /><path
           d="m 206.86451,100.55544 c 0,0 1.7178,4.359 1.9853,6.663 h 1e-4 c 0.1923,1.657 -0.1936,3.331 -0.2913,4.997 v 0 c -0.1167,2.005 4.0964,3.846 4.76477,7.173 h 9e-5 c 0.3131,1.561 -2.08796,1.925 -2.17066,3.224 v 0 c -0.0445,0.705 0.9809,1.184 0.9465,1.889 v 0.001 c -0.0285,0.569 -0.9729,1.211 -0.9995,1.495 v 0 c -0.0169,0.192 0.5564,0.701 0.3177,1.585 h -2e-4 c -0.2747,1.017 -1,0.77 -1.2175,1.021 h -4e-4 c -0.3694,0.427 -0.0795,1.858 -0.1319,2.471 v 10e-4 c -0.0763,1.519 -0.9971,2.508 -2.4882,3.116 h -7e-4 c -1.1666,0.47 -2.1056,0.511 -3.7317,0.51 h -6e-4 c -2.1053,-0.001 -4.2066,0.206 -5.0553,3.573"
           style="fill:none;fill-opacity:0;stroke:#3d5c82;stroke-width:0.99568;stroke-linecap:round;stroke-dasharray:none;stroke-opacity:1"
           id="path932" /><path
           d="m 207.07361,100.55544 c 0,0 1.7178,4.359 1.9853,6.663 h 1e-4 c 0.1923,1.657 -0.1936,3.331 -0.2912,4.997 h -1e-4 c -0.1166,2.005 4.0964,3.846 4.76479,7.173 h 1e-4 c 0.31306,1.561 -2.08799,1.925 -2.17069,3.224 v 0 c -0.0445,0.705 0.9809,1.184 0.9465,1.889 v 0.001 c -0.0285,0.569 -0.9729,1.211 -0.9994,1.495 h -1e-4 c -0.0168,0.192 0.5564,0.701 0.3177,1.585 h -2e-4 c -0.2747,1.017 -1,0.77 -1.2174,1.021 h -5e-4 c -0.3693,0.427 -0.0795,1.858 -0.1319,2.471 v 10e-4 c -0.0763,1.519 -0.9971,2.508 -2.4882,3.116 h -8e-4 c -1.1665,0.47 -2.1055,0.511 -3.7316,0.51 h -7e-4 c -2.1052,-0.001 -4.2065,0.206 -5.0552,3.573"
           style="fill:none;fill-opacity:0;stroke:#32527b;stroke-width:0.99568;stroke-linecap:round;stroke-dasharray:none;stroke-opacity:1"
           id="path933" /><path
           d="m 207.28281,100.55544 c 0,0 1.7177,4.359 1.9853,6.663 v 0 c 0.1923,1.657 -0.1936,3.331 -0.2912,4.997 v 0 c -0.1166,2.005 4.0963,3.846 4.76471,7.173 h 1.1e-4 c 0.31303,1.561 -2.08802,1.925 -2.17072,3.224 v 0 c -0.0444,0.705 0.981,1.184 0.9465,1.889 v 0.001 c -0.0286,0.569 -0.9729,1.211 -0.9994,1.495 h -1e-4 c -0.0167,0.192 0.5564,0.701 0.3177,1.585 l -1e-4,10e-4 c -0.2748,1.016 -1.0001,0.769 -1.2175,1.02 h -5e-4 c -0.3693,0.427 -0.0795,1.858 -0.1319,2.471 v 10e-4 c -0.0763,1.519 -0.9971,2.508 -2.4882,3.116 h -8e-4 c -1.1665,0.47 -2.1055,0.511 -3.7316,0.51 h -7e-4 c -2.1052,-0.001 -4.2065,0.206 -5.0552,3.573"
           style="fill:none;fill-opacity:0;stroke:#264973;stroke-width:0.99568;stroke-linecap:round;stroke-dasharray:none;stroke-opacity:1"
           id="path934" /><path
           d="m 207.49191,100.55544 c 0,0 1.7177,4.359 1.9853,6.663 h 10e-5 c 0.1922,1.657 -0.1937,3.331 -0.2913,4.997 v 0.001 c -0.1166,2.004 4.09633,3.845 4.76473,7.172 h 1.1e-4 c 0.313,1.561 -2.08804,1.925 -2.17074,3.224 v 0 c -0.0444,0.705 0.981,1.184 0.9466,1.889 l -1e-4,0.001 c -0.0286,0.569 -0.9728,1.211 -0.9994,1.495 v 0 c -0.0168,0.192 0.5564,0.701 0.3177,1.585 l -2e-4,10e-4 c -0.2748,1.016 -1.0001,0.769 -1.2175,1.02 h -5e-4 c -0.3693,0.427 -0.0794,1.858 -0.1319,2.471 v 10e-4 c -0.0763,1.519 -0.9971,2.508 -2.4882,3.116 h -8e-4 c -1.1665,0.47 -2.1055,0.511 -3.7316,0.51 h -7e-4 c -2.1052,-0.001 -4.2065,0.206 -5.0552,3.573"
           style="fill:none;fill-opacity:0;stroke:#1b3f6c;stroke-width:0.99568;stroke-linecap:round;stroke-dasharray:none;stroke-opacity:1"
           id="path935" /><path
           d="m 207.70101,100.55544 c 0,0 1.7178,4.359 1.9853,6.663 h 1e-4 c 0.1922,1.657 -0.1936,3.331 -0.2913,4.997 v 0.001 c -0.1165,2.004 4.09635,3.845 4.76475,7.172 h 1.2e-4 c 0.31296,1.561 -2.08807,1.925 -2.17067,3.224 h -10e-5 c -0.0444,0.705 0.981,1.184 0.94658,1.889 l -4e-5,0.001 c -0.0287,0.569 -0.97284,1.211 -0.99944,1.495 v 0 c -0.0167,0.192 0.5564,0.701 0.3177,1.585 l -2e-4,10e-4 c -0.2748,1.016 -1,0.769 -1.2175,1.02 h -5e-4 c -0.3692,0.427 -0.0794,1.858 -0.1318,2.471 l -1e-4,10e-4 c -0.0762,1.519 -0.9971,2.508 -2.4882,3.116 h -8e-4 c -1.1665,0.47 -2.1055,0.511 -3.7315,0.51 h -8e-4 c -2.1052,-0.001 -4.2065,0.206 -5.0551,3.573"
           style="fill:none;fill-opacity:0;stroke:#103665;stroke-width:0.99568;stroke-linecap:round;stroke-dasharray:none;stroke-opacity:1"
           id="path936" /></g></g></g></svg>
